<?xml version="1.0" encoding="iso-8859-1"?>
<!-- Generator: Adobe Illustrator 19.0.0, SVG Export Plug-In . SVG Version: 6.00 Build 0)  -->
<svg xmlns="http://www.w3.org/2000/svg" xmlns:xlink="http://www.w3.org/1999/xlink" version="1.1" id="Capa_1" x="0px" y="0px" viewBox="0 0 477.867 477.867" style="enable-background:new 0 0 477.867 477.867;" xml:space="preserve" width="512px" height="512px">
<g>
	<g>
		<path d="M471.716,67.939c-14.521-40.631-52.952-67.8-96.1-67.939c-43.352,0.05-81.976,27.394-96.427,68.267H85.483    C38.378,68.323,0.206,106.495,0.15,153.6v238.933c0.056,47.105,38.228,85.277,85.333,85.333h238.933    c47.105-0.056,85.277-38.228,85.333-85.333V198.827C463.005,179.794,490.748,121.194,471.716,67.939z M375.617,392.533    c0,28.277-22.923,51.2-51.2,51.2H85.483c-28.277,0-51.2-22.923-51.2-51.2V153.6c0-28.277,22.923-51.2,51.2-51.2h187.733    c0.056,56.531,45.869,102.344,102.4,102.4V392.533z M375.617,170.667c-37.703,0-68.267-30.564-68.267-68.267    s30.564-68.267,68.267-68.267c37.703,0,68.267,30.564,68.267,68.267S413.319,170.667,375.617,170.667z" fill="#000"/>
	</g>
</g>
<g>
</g>
<g>
</g>
<g>
</g>
<g>
</g>
<g>
</g>
<g>
</g>
<g>
</g>
<g>
</g>
<g>
</g>
<g>
</g>
<g>
</g>
<g>
</g>
<g>
</g>
<g>
</g>
<g>
</g>
</svg>
